<svg width="750" height="652" viewBox="0 0 750 652" fill="none" xmlns="http://www.w3.org/2000/svg">
<path d="M332.144 0.800468C335.622 -3.0222 349.186 7.75155 350.577 14.0073C352.316 17.8304 355.446 10.5316 361.707 10.5316C367.967 10.5314 367.967 -0.589568 374.227 0.800468C380.488 2.19063 382.227 13.6601 381.879 17.4831C381.531 21.306 390.921 16.0933 395.79 19.9161C400.659 23.7391 390.922 32.4273 394.747 36.9453C396.029 38.4584 400.312 40.4209 404.486 39.0307C408.659 37.6406 420.136 36.9456 421.875 41.4638C424.417 48.067 406.224 48.7623 407.616 54.6706C409.007 60.5789 417.701 55.3654 417.701 65.0969C417.701 65.0969 425.701 66.1397 425.353 76.2183C426.396 81.4313 431.266 69.2674 440.309 67.1824C449.186 65.1356 448.678 72.3557 448.327 77.3336L448.308 77.6086C450.279 75.9868 454.847 75.6628 455.96 81.7795C459.786 81.4322 476.479 83.8657 479.609 106.455C479.609 106.455 484.477 106.455 485.869 109.235C487.26 112.015 486.565 116.186 486.565 117.924C493.869 118.156 508.476 124.18 509.172 128.698C509.867 133.216 500.593 137.039 495.956 136.691C496.651 139.356 497.347 145.728 497.347 149.551C497.347 153.373 499.781 143.99 507.78 145.727C506.737 142.947 505.694 137.734 509.868 137.734C514.041 137.734 518.214 141.905 518.562 142.948C518.91 143.989 523.084 137.039 527.605 138.429C531.222 139.541 533.054 141.905 533.518 142.948C534.909 140.978 538.664 137.178 542.56 137.734C546.455 138.29 550.443 142.832 551.95 145.033C554.732 141.905 561.201 135.858 564.818 136.691C568.436 137.526 568.412 142.6 567.949 145.033C571.311 145.728 578.383 148.091 579.774 151.984C581.513 156.849 576.296 165.191 572.818 166.233L572.867 166.229C577.434 165.878 590.556 164.869 590.556 172.141C590.556 179.44 577.687 174.574 578.383 178.05C579.774 181.525 586.382 185.348 585.338 190.562C584.874 192.877 580.818 192.994 581.165 197.86C581.513 202.725 577.379 210.062 575.253 213.152C576.992 216.975 585.687 211.066 590.556 218.712C592.849 222.313 594.381 226.706 594.729 230.876C595.077 235.047 597.431 237.296 598.903 237.48C601.685 237.828 600.642 231.572 607.597 224.273C614.553 216.975 626.03 215.237 626.378 220.798C626.726 226.359 624.639 236.438 622.9 236.785C621.163 237.132 641.681 232.963 645.159 240.608C648.637 248.254 640.755 253.93 636.117 255.552L636.171 255.807C636.647 258.054 637.456 261.874 636.117 263.546C634.726 265.284 624.64 262.503 625.336 267.021C625.674 269.218 626.429 272.263 628.466 274.668C630.619 277.21 634.04 279.118 633.682 281.618C632.987 286.484 623.249 291.002 619.075 291.697C614.902 292.392 610.38 292.74 608.641 292.74C609.105 295.404 609.545 301.15 607.597 302.818C605.163 304.904 601.338 305.947 603.077 308.38C604.816 310.812 611.771 303.514 616.988 302.818C622.205 302.123 639.247 306.295 639.247 312.898C639.247 319.501 631.944 322.977 634.726 325.757C637.509 328.537 651.42 321.587 653.855 325.757C656.288 329.928 650.376 341.397 646.898 345.567C643.42 349.737 634.727 345.915 634.726 350.085C634.726 354.255 648.29 351.823 653.855 348.695C659.419 345.567 674.722 347.305 679.244 354.256C683.765 361.206 686.546 371.632 686.547 375.456C686.547 376.846 692.111 374.761 694.198 377.541C696.285 380.321 694.895 383.449 694.894 388.315C702.662 389.473 720.144 394.224 722.37 402.564C724.596 410.905 707.067 413.686 698.025 414.033C703.01 420.753 709.154 439.752 704.98 444.618C700.806 449.483 689.098 443.227 685.156 437.319C683.302 440.563 679.313 446.842 675.417 448.788C679.591 449.135 694.894 455.739 694.894 461.3C694.894 466.86 690.257 469.873 687.243 469.294C688.518 471.495 692.112 476.036 696.286 476.592C698.617 476.902 703.589 475.549 706.719 471.378C709.849 467.208 713.343 463.733 716.806 463.733C723.065 463.733 723.761 470.684 728.978 470.684C734.195 470.684 732.804 461.3 737.673 462.69C742.542 464.08 741.73 470.915 737.673 473.811C741.035 474.159 746.438 476.314 746.716 479.373C747.063 483.195 734.543 484.238 734.543 488.756C737.673 489.798 748.454 485.976 749.845 490.842C751.236 495.707 742.89 495.36 739.064 498.14C735.239 500.92 738.368 505.438 735.934 507.871C733.5 510.304 727.935 509.03 724.805 509.261C724.689 511.462 724.805 516.212 725.5 518.645C727.239 520.73 733.847 523.511 734.543 526.986C735.099 529.767 733.383 531.504 731.76 532.199C734.659 533.358 738.368 537.552 738.368 542.279C738.368 548.187 727.587 550.967 721.675 550.272C722.37 557.918 719.24 567.649 711.24 569.039C703.241 570.429 690.025 554.095 688.982 550.272C687.938 546.449 682.373 550.272 680.286 562.784C679.243 569.039 668.114 569.039 661.158 565.911C654.204 562.783 651.164 558.831 650.377 558.96C649.145 560.807 652.811 564.868 656.289 565.911C659.766 566.953 662.139 571.091 661.854 572.515C661.158 575.99 654.55 573.21 654.202 575.991C653.855 578.771 659.419 580.856 658.376 585.374C657.333 589.892 648.638 588.155 647.247 590.588C645.856 593.021 650.028 605.184 645.159 607.964C640.29 610.745 630.9 603.099 627.77 599.276C624.639 595.453 626.031 590.588 622.205 590.588C618.38 590.588 612.119 600.319 608.641 599.276C605.163 598.234 607.597 598.233 604.467 598.233C601.337 598.234 602.381 600.319 600.642 601.709C598.903 603.099 597.859 602.057 597.859 605.879C597.859 609.702 599.946 616.653 594.381 617.696C588.817 618.738 576.991 612.83 572.47 606.574C567.949 600.319 567.253 594.41 564.818 594.062C562.384 593.716 561.341 598.234 556.472 600.666C551.603 603.099 545.69 601.014 543.951 602.404C542.212 603.796 538.038 614.916 528.3 615.264C518.563 615.611 519.605 605.533 517.867 602.404C516.128 599.276 512.649 599.971 509.519 596.495C506.389 593.02 509.519 589.198 503.607 589.545C497.695 589.893 494.913 596.496 490.739 599.624C486.566 602.751 479.261 599.624 479.261 603.447C479.261 611.787 473.697 610.05 473.349 612.483C473.002 614.916 477.87 623.256 475.783 628.122C473.697 632.988 461.523 629.86 459.089 632.293C456.654 634.726 459.437 646.195 450.394 648.628C441.352 651.06 438.222 641.678 435.44 639.244C432.657 636.812 428.831 639.591 425.005 637.506C421.18 635.421 423.266 633.336 420.484 633.336C417.702 633.336 416.31 638.548 414.224 642.024C412.137 645.499 405.529 653.494 400.312 651.756C395.095 650.018 391.269 642.719 394.051 635.421C396.834 628.123 400.312 626.385 399.269 623.257C398.225 620.129 391.269 623.952 387.791 620.129C384.313 616.306 380.139 625.342 375.27 621.867C370.401 618.391 371.098 611.44 380.14 611.788C383.501 611.917 383.271 607.964 386.401 606.922C389.531 605.879 394.052 606.227 396.834 603.447C399.616 600.667 405.181 603.794 404.138 597.886C403.095 591.978 396.487 591.282 393.009 593.02C389.531 594.757 388.835 597.886 386.401 601.709C383.966 605.532 377.01 607.617 373.184 607.617C369.358 607.617 364.49 610.398 365.881 613.526C367.272 616.653 369.01 617.696 370.054 620.129C371.097 622.561 371.445 624.647 373.184 625.69C374.923 626.732 384.661 627.08 383.966 632.293C383.27 637.506 371.793 632.988 372.489 637.506C373.185 642.024 381.183 643.762 378.749 648.628C376.314 653.493 370.054 649.67 367.967 646.89C365.88 644.11 365.532 642.024 362.751 642.024C359.968 642.024 359.272 645.499 356.49 645.847C353.708 646.195 352.316 653.146 347.1 651.756C341.883 650.366 345.012 645.5 345.012 643.762C345.012 642.024 347.447 638.897 345.012 638.549C342.578 638.202 339.1 641.676 336.318 638.549C333.535 635.421 336.317 631.598 332.492 630.902C328.666 630.208 322.058 643.761 319.276 638.549C316.493 633.336 325.188 628.818 322.058 625.69C318.928 622.562 315.102 626.732 313.015 622.562C310.929 618.391 314.059 612.483 311.276 609.702C308.494 606.922 306.407 615.746 297.364 614.567C288.322 613.389 290.756 607.617 291.452 606.227C292.147 604.836 294.582 603.793 293.887 601.361C293.191 598.928 288.322 596.842 286.235 591.629C284.148 586.417 273.367 593.02 268.498 588.155C263.629 583.289 261.541 595.453 250.412 595.8C239.283 596.148 235.457 588.155 230.936 588.155C226.414 588.155 214.591 587.807 215.285 590.587C215.98 593.367 217.72 600.666 217.72 606.922C217.72 613.178 210.416 622.214 203.808 622.562C197.2 622.909 191.287 619.781 188.505 615.958C185.722 612.135 186.766 606.226 180.158 604.836C173.55 603.446 169.376 604.837 164.854 602.404C160.333 599.971 157.551 593.715 155.464 594.41C153.377 595.106 150.595 611.788 140.162 619.086C129.728 626.384 117.554 629.165 114.424 622.562C111.294 615.958 113.381 602.751 115.815 596.495C118.25 590.24 123.815 583.984 122.423 580.856C118.945 580.161 106.077 582.594 98.0781 574.6C90.0789 566.607 93.2089 564.869 88.34 561.046C83.471 557.223 87.2963 552.01 85.2098 550.967C83.1231 549.925 74.4286 555.833 71.994 548.534C69.5594 541.235 71.9933 533.589 73.0367 531.504C68.8631 532.547 58.43 535.674 54.6042 531.504C50.7785 527.333 56.6903 521.425 55.647 517.949C54.6035 514.474 51.8217 513.085 50.0828 514.127C48.3438 515.17 46.9519 521.078 38.6048 520.035C30.2582 518.992 29.9104 512.042 31.6493 510.651C33.3883 509.261 15.6506 511.694 16.346 502.311C17.0416 492.927 41.3876 493.622 40.3447 489.104C39.3013 484.586 22.9543 484.933 20.8675 477.982C18.7807 471.031 38.6045 472.074 36.8659 467.556C35.1269 463.038 29.2144 454.349 33.7358 448.44C38.257 442.532 46.6043 452.263 52.5168 451.221C58.4291 450.178 53.2129 443.923 57.3858 443.923C61.5594 443.923 65.3855 451.221 67.8201 450.526C70.2544 449.831 67.8201 443.923 71.2978 443.923C74.7758 443.923 80.688 444.27 81.0359 441.142C81.3837 438.014 79.6452 430.022 76.863 431.064C74.0807 432.106 76.8626 439.752 67.8201 440.447C58.7775 441.142 48.6914 439.057 44.17 430.368C39.6487 421.68 40.3447 415.771 40.3447 415.771C38.258 415.424 33.6664 413.825 31.9969 410.211C29.9101 405.693 31.3017 404.302 31.3017 402.564C29.9104 400.827 11.4774 399.089 7.65165 392.138C3.8259 385.187 20.1724 380.322 23.3025 380.322C26.4326 380.322 28.8667 378.931 28.8667 377.193C28.8658 375.455 20.52 368.852 20.8675 360.164C21.2153 351.476 23.6498 349.043 25.7365 348.348C27.8233 347.653 34.7796 352.865 36.1708 351.822C37.5614 350.779 34.7797 343.829 38.6048 342.091C41.0585 340.977 47.9961 346.957 51.4741 353.56C53.5608 357.522 56.0138 356.099 57.3858 354.603C60.5159 351.823 52.8651 351.823 53.9081 346.957C54.9515 342.092 63.2983 342.092 68.5152 348.348C73.7321 354.604 74.4286 352.518 75.1242 351.822C75.8189 351.125 74.7746 343.133 70.2541 340.701C65.7328 338.268 58.7774 336.183 58.4296 331.318C58.2759 329.167 61.0202 326.908 65.3851 325.756C70.8945 324.303 78.367 324.067 78.9495 321.934C79.4224 320.201 76.0751 318.921 74.0804 315.33C71.674 310.998 69.9068 306.989 71.2978 299.344C72.689 291.698 82.7751 296.215 86.9487 295.52C91.1221 294.825 100.512 292.045 103.295 293.782C106.077 295.52 109.131 298.92 109.555 301.776C110.026 304.951 105.821 306.953 107.469 307.684C113.033 309.77 115.468 303.167 114.773 298.301C114.077 293.435 112.686 293.782 111.99 290.654C111.295 287.527 114.077 286.136 113.034 283.704C111.99 281.271 105.73 287.179 100.513 282.313C98.7741 280.692 99.8303 278.49 99.1218 277.1C97.7048 274.32 93.9042 274.667 93.9042 270.844C93.9042 267.021 87.2969 271.539 86.2536 267.021C85.2104 262.503 90.4269 262.503 89.7313 259.028C89.0357 255.552 76.5152 250.339 76.863 245.473C77.2111 240.608 87.2964 243.04 88.6876 240.955C90.0782 238.87 86.6012 233.309 90.774 231.919C94.9474 230.529 100.86 239.912 105.034 239.218C109.207 238.523 106.425 234.352 111.294 232.614C116.163 230.876 121.728 237.48 124.858 237.133C127.989 236.785 127.293 234.352 130.771 234.7C134.249 235.047 133.206 237.828 136.335 237.828C139.465 237.828 148.508 236.437 147.117 242.345C146.549 244.759 145.083 247.406 144.683 249.644C144.104 252.884 144.839 255.268 146.073 254.857C148.856 254.162 149.552 249.297 148.856 246.516C148.16 243.736 149.552 239.218 152.682 237.828C155.813 236.438 165.202 239.218 167.637 244.083C170.072 248.949 172.159 245.821 172.159 243.388C172.159 240.955 175.985 234.699 179.463 233.657C182.94 232.614 181.897 227.055 179.463 226.706C177.028 226.359 167.637 227.749 167.637 221.84C167.637 215.932 173.897 212.457 177.028 211.762C180.158 211.067 186.765 212.457 187.113 210.719C187.461 208.981 178.071 202.378 178.071 195.774C178.071 189.171 183.287 191.256 183.635 189.171C183.983 187.086 180.853 184.305 182.244 181.872C183.635 179.44 187.809 182.567 188.505 181.177C189.2 179.787 187.81 176.659 190.592 175.269C193.374 173.88 199.286 180.829 201.025 179.788C202.764 178.745 201.722 174.922 206.243 174.922C210.764 174.922 215.285 183.609 217.024 183.262C218.763 182.915 220.154 177.702 222.589 177.702C225.024 177.702 230.588 179.092 231.979 177.702C233.371 176.312 233.718 172.489 235.457 171.098C237.196 169.709 240.325 170.751 240.674 169.014C241.022 167.276 239.978 160.672 245.543 153.374C251.108 146.076 264.179 149.203 265.715 146.075C267.251 142.947 271.28 135.301 269.193 133.216C267.105 131.131 253.194 134.259 250.412 131.826C247.63 129.394 246.935 120.357 251.108 117.229C255.282 114.101 257.02 112.363 256.672 110.278C256.322 108.191 237.544 98.1133 238.587 90.1203C239.631 82.1271 246.934 81.7796 250.412 82.1271C253.89 82.4746 258.411 84.2119 258.76 83.1698C259.107 82.1272 253.542 77.2613 256.672 70.6581C259.802 64.0547 264.324 66.1395 264.324 64.7493C264.324 63.3591 262.585 60.2315 264.324 57.4512C266.063 54.671 271.975 58.8408 272.323 56.7561L272.332 56.7037C272.694 54.5297 274.119 45.9766 281.018 45.2871C287.974 44.5921 290.757 51.89 293.192 51.5425C295.626 51.1942 297.712 45.6351 300.842 47.025C303.972 48.4151 300.842 55.7133 302.233 56.7561C303.625 57.7987 306.06 57.1038 306.407 59.1891C306.756 61.2736 314.406 58.8411 314.754 56.0609C315.102 53.2806 315.102 49.8053 319.276 47.025C323.449 44.2447 333.187 47.7194 333.883 45.2871C334.578 42.8543 331.796 37.2938 329.014 36.2512C326.231 35.2085 320.666 32.7751 319.971 29.2996C319.276 25.8244 327.622 23.7396 329.014 23.7394C330.405 23.7394 334.231 24.0864 335.274 21.3064C331.912 15.9774 328.666 4.62355 332.144 0.800468Z" fill="white"/>
<path d="M7.65165 414.033C13.9118 410.211 21.5632 409.863 27.1278 411.948C32.6923 414.033 32.345 421.679 31.3017 424.112C30.2583 426.545 25.3889 433.844 15.9984 432.454C6.60802 431.064 1.04338 425.502 0 424.112C0.46389 422.027 2.64367 417.092 7.65165 414.033Z" fill="white"/>
<path d="M703.589 358.079C711.936 354.256 730.021 358.426 730.021 363.639C730.021 368.852 722.718 377.541 716.109 378.236C709.501 378.931 699.068 379.974 694.894 369.548C695.01 366.999 696.911 361.137 703.589 358.079Z" fill="white"/>
<path fill-rule="evenodd" clip-rule="evenodd" d="M28.8687 295.342C29.498 295.342 29.9767 295.667 31.3612 297.046C32.771 298.449 33.3 299.252 34.4581 301.607C35.2385 303.186 36.0944 305.367 36.3965 306.419C36.8748 308.224 37.5035 314.238 37.277 315.291C37.2266 315.542 37.1268 316.469 37.0513 317.345C36.9003 318.848 36.9249 318.899 37.4785 318.799C37.7806 318.749 40.4748 317.521 43.4456 316.068C51.326 312.258 58.9797 309.2 61.8247 308.749C62.8315 308.599 62.9073 308.624 62.5803 308.95C62.3789 309.15 61.0191 309.977 59.5589 310.779C58.0987 311.556 55.858 312.885 54.5488 313.687C51.8802 315.366 49.6895 316.493 48.6824 316.744C48.2545 316.844 48.0529 317.02 48.1283 317.22C48.3045 317.696 47.7761 318.072 43.6975 320.453C39.8204 322.734 36.5224 324.412 35.9683 324.412C35.792 324.412 35.4141 324.638 35.1371 324.914C34.8603 325.19 34.6334 325.34 34.6334 325.214C34.6316 325.114 33.9026 325.065 33.0225 325.115C31.4868 325.19 31.4116 325.19 31.5375 324.688C31.613 324.338 31.5373 324.112 31.2604 324.011C30.8828 323.861 30.9081 323.761 31.5123 323.135L32.1913 322.433L30.7063 322.458C29.9007 322.458 28.0379 322.332 26.5778 322.182C24.3874 321.931 23.6314 321.706 22.2467 320.979C20.132 319.876 18.2693 318.272 18.2693 317.596C18.2691 317.32 18.0424 316.694 17.7403 316.218C17.3123 315.541 17.2619 315.315 17.5137 315.015C17.6899 314.789 17.7655 314.288 17.69 313.812C17.6144 313.235 17.7153 312.834 18.0426 312.408C18.2942 312.083 18.5209 311.657 18.5211 311.456C18.5211 311.256 18.747 310.805 19.0238 310.454C19.3008 310.103 19.5276 309.676 19.5276 309.501C19.5278 309.326 19.7042 309.051 19.9054 308.875C20.1068 308.7 20.2832 308.399 20.2832 308.173C20.2832 306.97 21.9703 306.519 23.7327 307.246C24.9155 307.747 24.9403 307.747 24.3362 306.92C23.5056 305.742 23.4559 304.99 24.0601 303.737C24.3623 303.086 24.8652 302.284 25.1673 301.908C26.0484 300.83 26.7029 299.577 27.1812 297.973C27.4582 297.146 27.7605 296.219 27.8613 295.893C28.0123 295.492 28.2645 295.342 28.8687 295.342ZM35.1371 320.153C35.1371 319.802 34.7853 319.852 34.4329 320.202C33.9547 320.678 34.0798 320.954 34.6334 320.654C34.91 320.503 35.1365 320.278 35.1371 320.153Z" fill="white"/>
<path d="M687.17 248.928C687.833 249.17 688.215 250.3 688.698 253.425C688.818 254.252 689.381 256.289 689.924 257.962C691.23 261.833 691.41 263.608 690.607 264.777C690.326 265.199 690.085 265.561 690.084 265.604C690.084 265.624 690.346 265.624 690.667 265.563C690.989 265.523 691.571 265.665 692.053 265.907C693.078 266.431 693.661 267.62 693.922 269.657C694.183 271.552 694.183 271.633 693.902 273.589C693.761 274.536 693.621 275.847 693.561 276.512C693.5 277.4 693.339 277.844 692.997 278.227C692.736 278.51 692.335 279.115 692.094 279.578L691.651 280.445H690.405C688.858 280.444 686.326 279.618 684.356 278.469C683.593 278.005 682.93 277.682 682.89 277.722C682.83 277.764 683.252 278.368 683.794 279.073C685.12 280.787 686.226 282.622 686.386 283.368L686.507 283.994L685.322 283.974C683.192 283.954 677.626 281.816 675.013 280.042C673.687 279.134 673.225 278.65 673.044 277.924C672.903 277.46 672.762 277.36 672.079 277.319C671.074 277.239 669.145 276.271 665.99 274.295C664.684 273.488 662.373 272.138 660.845 271.331C659.318 270.525 657.792 269.597 657.45 269.274C656.867 268.729 656.867 268.689 657.208 268.427C657.409 268.285 658.093 268.064 658.695 267.923C660.846 267.479 663.98 268.105 671.295 270.464C674.791 271.593 676.701 272.117 677.062 272.036C677.645 271.915 677.585 272.077 677.947 269.193C678.007 268.669 678.449 266.249 678.931 263.789C679.815 259.353 680.74 256.409 682.126 253.667C682.749 252.417 684.819 250.139 686.025 249.372C686.507 249.07 687.029 248.868 687.17 248.928Z" fill="white"/>
<path d="M206.59 162.758C207.866 159.745 212.642 153.861 221.545 154.417C230.449 154.973 234.066 162.758 234.762 166.581C233.603 169.709 229.197 175.477 220.85 173.531C212.503 171.585 207.866 165.538 206.59 162.758Z" fill="white"/>
<path d="M495.956 89.7727C502.564 88.7304 514.387 92.2054 514.388 96.3757C514.388 100.546 508.128 107.149 503.955 108.54C499.781 109.93 486.913 109.93 485.174 100.547C486.681 97.5344 489.348 90.8152 495.956 89.7727Z" fill="white"/>
<path fill-rule="evenodd" clip-rule="evenodd" d="M445.148 39.3924C445.148 38.9268 445.881 39.0823 449.092 40.2931C450.223 40.7277 452.761 41.3793 456.429 42.2174C457.316 42.4036 459.028 43.2424 460.16 43.9875C460.955 44.5152 460.955 44.5148 460.833 43.7386C460.741 43.2731 460.802 42.9629 461.016 42.9629C461.354 42.9634 465.144 43.9569 467.161 44.5466C470.708 45.6333 474.714 47.8683 476.426 49.731L477.313 50.6619L478.902 48.7689C480.92 46.3474 484.987 42.7768 487.952 40.7898C490.857 38.8649 491.347 38.7715 491.683 40.0755C491.805 40.6032 492.355 41.3481 492.845 41.7207C493.976 42.5279 493.976 42.7452 492.936 43.7386L492.08 44.5466L493.854 43.7386C495.994 42.8075 496.269 42.7768 496.819 43.6147C497.064 43.9873 497.431 44.4218 497.615 44.6081C498.073 45.0739 497.431 46.2537 495.994 47.6506C494.19 49.4202 489.207 52.215 484.039 54.3261C479.209 56.313 478.597 56.6231 479.484 56.6231C480.217 56.6235 480.125 57.4609 479.331 57.8955C478.658 58.2681 478.658 58.2686 479.636 59.1377C480.186 59.6345 480.461 60.0384 480.247 60.0384C480.033 60.038 479.483 59.6036 479.056 59.0763C478.291 58.1139 478.229 58.0819 477.526 58.5786C476.64 59.2306 476.12 59.262 476.64 58.6411C476.854 58.3618 476.884 58.1758 476.701 58.1756C476.273 58.1756 475.998 59.0443 476.334 59.2617C476.518 59.3859 476.609 59.6966 476.609 59.9759C476.579 60.4727 476.548 60.4727 476.426 59.9759C476.243 59.2 474.836 58.9518 474.316 59.6344C474.072 59.9447 473.888 60.0381 473.919 59.8833C474.01 59.1072 473.827 59.1377 473.124 59.9447L472.359 60.8142L472.849 59.6969C473.246 58.7965 473.49 58.5793 474.01 58.7035C474.652 58.8277 474.652 58.8275 474.072 58.362C473.735 58.0826 473.368 57.8653 473.215 57.8653C473.093 57.8653 472.97 57.6472 472.97 57.3989C472.971 57.1507 473.246 56.9335 473.582 56.9334C474.897 56.9334 474.071 56.3746 470.616 54.9155C465.357 52.7112 457.164 48.4272 452.944 45.6951C448.786 42.9941 445.148 40.0754 445.148 39.3924ZM476.64 56.3743C476.212 56.3743 476.059 56.4373 476.273 56.5304C476.456 56.5924 476.824 56.5925 477.038 56.5304C477.221 56.4373 477.068 56.3743 476.64 56.3743Z" fill="white"/>
<path fill-rule="evenodd" clip-rule="evenodd" d="M572.295 101.198C572.404 100.96 572.899 100.039 573.601 100.271C573.911 100.374 574.069 100.578 574.447 101.362C574.79 102.076 574.812 102.162 575.086 103.744C575.259 104.742 575.31 105.082 575.308 105.238C575.305 105.376 575.341 105.803 575.412 106.467C575.421 106.55 575.428 106.636 575.435 106.723C575.45 106.721 575.462 106.722 575.471 106.724C575.51 106.736 575.491 106.767 575.44 106.798C575.481 107.407 575.466 108.06 575.398 108.474C575.364 108.68 575.31 108.877 575.236 109.06C575.065 109.472 575.057 109.585 575.205 109.609C575.558 109.667 575.721 109.702 575.766 109.729C575.854 109.784 575.859 109.968 575.786 110.368C575.748 110.567 575.723 110.747 575.728 110.764C575.734 110.785 575.71 110.91 575.672 111.044C575.552 111.485 575.542 111.616 575.633 111.589C575.653 111.582 575.855 111.403 576.087 111.189C576.321 110.976 576.583 110.738 576.669 110.668C576.753 110.597 577.049 110.334 577.324 110.088C577.598 109.841 577.941 109.554 578.084 109.451C578.227 109.347 578.48 109.15 578.644 109.008C578.809 108.869 579.058 108.673 579.196 108.571C579.335 108.471 579.571 108.298 579.717 108.188C579.866 108.075 580.064 107.932 580.158 107.872C580.255 107.809 580.385 107.717 580.448 107.667C580.51 107.616 580.638 107.541 580.728 107.502C580.817 107.46 580.946 107.381 581.016 107.326C581.091 107.264 581.33 107.133 581.641 106.984C581.917 106.85 582.247 106.687 582.377 106.619C582.707 106.451 583.225 106.279 583.793 106.151C584.333 106.029 584.563 106.01 584.857 106.067C585.165 106.127 585.352 106.264 585.416 106.485C585.518 106.836 585.415 107.849 585.21 108.502C585.086 108.899 584.357 110.234 583.745 111.191C583.488 111.59 582.77 112.549 582.589 112.733C582.502 112.82 582.378 112.961 582.314 113.044C582.184 113.213 582.08 113.316 581.949 113.405C581.9 113.438 581.821 113.505 581.777 113.555C581.73 113.604 581.558 113.718 581.395 113.809C580.959 114.048 580.933 114.079 581.031 114.236C581.22 114.538 581.128 114.789 580.615 115.343L580.572 115.389C580.472 115.5 580.392 115.589 580.389 115.594C580.376 115.614 580.471 115.667 580.579 115.7C580.637 115.715 580.757 115.729 580.839 115.727C581.097 115.719 581.149 115.789 580.967 115.896C580.91 115.929 580.859 115.974 580.849 115.995C580.81 116.087 581.027 116.117 581.245 116.054C581.358 116.021 581.496 116.024 581.507 116.058C581.516 116.088 581.452 116.177 581.385 116.231C581.314 116.289 581.304 116.29 581.572 116.242C581.701 116.22 581.74 116.225 581.848 116.285C581.962 116.345 581.987 116.349 582.1 116.316C582.272 116.266 582.35 116.295 582.388 116.423C582.413 116.51 582.427 116.522 582.495 116.526C582.543 116.529 582.594 116.557 582.628 116.598C582.658 116.637 582.715 116.668 582.764 116.673C582.812 116.681 582.894 116.711 582.946 116.741C583.001 116.774 583.08 116.805 583.123 116.814C583.233 116.838 583.254 116.947 583.157 117.007C583.121 117.028 583.068 117.079 583.042 117.116C582.989 117.193 582.977 117.184 583.243 117.275C583.311 117.298 583.391 117.345 583.417 117.378C583.445 117.41 583.49 117.447 583.524 117.462C583.579 117.486 583.581 117.492 583.564 117.59C583.551 117.672 583.557 117.703 583.592 117.741C583.616 117.769 583.648 117.813 583.666 117.84C583.682 117.867 583.754 117.922 583.824 117.963L583.956 118.038L583.846 118.247L583.935 118.315C583.982 118.349 584.026 118.393 584.031 118.408C584.036 118.425 584.015 118.499 583.987 118.577C583.959 118.652 583.941 118.741 583.951 118.773C583.962 118.81 584.034 118.867 584.158 118.935C584.309 119.017 584.352 119.056 584.37 119.117C584.395 119.202 584.469 119.253 584.597 119.28C584.71 119.301 584.791 119.388 584.769 119.461C584.744 119.549 584.765 119.584 584.891 119.668C584.957 119.713 585.008 119.762 585.008 119.778C585.006 119.798 584.947 119.823 584.851 119.848L584.696 119.888L584.825 119.947C585.017 120.037 585.074 120.152 584.944 120.189C584.868 120.212 584.885 120.287 584.993 120.395C585.091 120.493 585.095 120.497 585.073 120.579C585.054 120.659 585.056 120.665 585.13 120.734C585.223 120.817 585.265 120.945 585.265 121.146C585.264 121.307 585.233 121.394 585.169 121.412C585.071 121.441 585.147 121.575 585.347 121.729C585.422 121.785 585.484 121.845 585.489 121.862C585.495 121.882 585.469 121.92 585.429 121.95L585.361 121.999L585.449 122.062C585.688 122.234 585.708 122.255 585.809 122.494C585.863 122.624 585.905 122.752 585.902 122.777C585.899 122.82 585.89 122.82 585.818 122.774C585.776 122.746 585.735 122.707 585.73 122.689C585.717 122.645 585.605 122.595 585.58 122.62C585.552 122.653 585.584 122.692 585.796 122.888C586.033 123.109 586.021 123.158 585.742 123.07C585.672 123.048 585.619 123.042 585.622 123.054C585.626 123.067 585.644 123.08 585.658 123.084C585.7 123.096 585.847 123.227 585.885 123.286C585.903 123.31 585.911 123.349 585.904 123.372C585.895 123.404 585.881 123.408 585.824 123.387C585.674 123.337 585.656 123.406 585.797 123.513C585.845 123.55 585.887 123.595 585.892 123.613C585.906 123.665 585.793 123.734 585.671 123.751C585.584 123.763 585.552 123.754 585.502 123.702C585.455 123.651 585.431 123.644 585.393 123.668C585.367 123.687 585.258 123.743 585.153 123.795C585.045 123.845 584.878 123.95 584.78 124.026C584.621 124.148 584.57 124.174 584.363 124.231C584.361 124.232 584.358 124.233 584.355 124.233C584.401 124.311 584.446 124.381 584.467 124.402C584.468 124.404 584.47 124.406 584.471 124.408C584.763 124.262 584.895 124.18 585.014 124.078C585.131 123.976 585.215 123.925 585.301 123.899C585.485 123.846 585.524 123.881 585.622 124.19C585.75 124.585 585.763 124.627 585.81 124.825C585.856 125.011 585.857 125.014 585.786 125.048C585.724 125.079 585.722 125.091 585.746 125.22C585.762 125.304 585.762 125.35 585.745 125.336C585.728 125.323 585.689 125.317 585.655 125.327C585.584 125.348 585.592 125.397 585.705 125.582C585.813 125.762 585.816 125.78 585.706 125.731C585.654 125.709 585.601 125.693 585.589 125.696C585.537 125.711 585.563 125.797 585.638 125.872C585.79 126.019 585.751 126.108 585.568 126.038L585.46 125.994L585.54 126.207C585.606 126.378 585.615 126.42 585.585 126.417C585.566 126.417 585.529 126.382 585.508 126.337C585.463 126.254 585.416 126.23 585.333 126.254C585.291 126.266 585.274 126.301 585.258 126.421C585.248 126.505 585.19 126.664 585.13 126.786C584.985 127.069 584.982 127.1 585.054 127.256C585.131 127.419 585.126 127.442 585.025 127.471C584.961 127.49 584.944 127.506 584.954 127.541C584.984 127.642 584.888 127.705 584.764 127.666C584.667 127.635 584.59 127.679 584.574 127.772C584.565 127.823 584.514 127.895 584.421 127.98C584.344 128.054 584.26 128.156 584.231 128.213C584.155 128.364 584.115 128.394 584.043 128.359C583.972 128.326 583.944 128.246 583.976 128.164C584.011 128.071 583.977 127.994 583.896 127.988C583.805 127.979 583.674 128.017 583.6 128.074C583.546 128.116 583.546 128.125 583.594 128.234C583.699 128.475 583.515 128.486 583.254 128.256C583.171 128.183 583.034 128.062 582.948 127.985C582.862 127.908 582.631 127.755 582.436 127.645C582.142 127.475 582.069 127.445 582.01 127.463C581.968 127.475 581.918 127.505 581.899 127.532C581.864 127.577 581.867 127.582 581.968 127.647C582.026 127.683 582.078 127.736 582.085 127.758C582.092 127.783 582.133 127.838 582.175 127.884C582.256 127.971 582.318 128.138 582.299 128.208C582.292 128.232 582.247 128.269 582.197 128.292C582.062 128.356 582.086 128.413 582.331 128.605C582.604 128.818 582.663 128.884 582.764 129.078C582.851 129.246 582.849 129.238 582.813 129.534C582.795 129.673 582.798 129.688 582.877 129.85C582.978 130.049 583.198 130.714 583.221 130.884C583.251 131.098 583.121 131.208 582.938 131.128C582.761 131.05 582.74 130.908 582.875 130.684L582.955 130.548L582.9 130.421C582.869 130.353 582.811 130.243 582.774 130.181C582.734 130.118 582.668 130.01 582.627 129.941C582.586 129.872 582.477 129.628 582.388 129.397L582.385 129.388C582.198 128.909 582.196 128.903 582.032 128.705C581.966 128.622 581.813 128.398 581.694 128.207C581.453 127.821 581.425 127.791 581.225 127.637C581.045 127.501 580.921 127.311 580.787 126.961C580.628 126.543 580.585 126.453 580.486 126.321C580.392 126.19 580.24 126.033 580.157 125.979C580.108 125.945 580.105 125.946 580.106 126.007C580.105 126.039 580.171 126.292 580.248 126.567C580.349 126.924 580.39 127.101 580.389 127.198C580.389 127.316 580.414 127.54 580.517 128.362C580.549 128.626 580.531 128.814 580.47 128.861C580.448 128.878 580.367 128.902 580.285 128.915C580.141 128.941 580.136 128.942 580.075 129.053C580.004 129.184 580.012 129.231 580.151 129.442C580.227 129.559 580.261 129.641 580.266 129.738L580.26 129.893C580.263 129.938 580.282 129.976 580.335 130.053C580.388 130.134 580.439 130.259 580.49 130.432C580.543 130.615 580.595 130.74 580.67 130.861C580.744 130.979 580.812 131.136 580.887 131.369C581.052 131.863 581.065 132.126 580.93 132.329C580.88 132.405 580.855 132.421 580.763 132.434C580.607 132.458 580.3 132.421 580.241 132.374C580.112 132.269 580.156 132.152 580.352 132.076C580.507 132.015 580.537 131.96 580.543 131.741C580.545 131.611 580.533 131.569 580.456 131.396C580.339 131.14 580.158 130.832 580.068 130.735C579.963 130.62 579.879 130.403 579.893 130.278C579.903 130.187 579.896 130.17 579.816 130.059C579.714 129.922 579.652 129.733 579.656 129.589C579.66 129.459 579.688 129.454 579.744 129.575C579.792 129.676 579.961 129.796 579.999 129.753C580.033 129.713 579.976 129.574 579.886 129.477C579.775 129.359 579.662 129.33 579.44 129.362C579.223 129.393 579.148 129.366 578.996 129.204C578.857 129.054 578.55 128.618 578.526 128.538C578.516 128.503 578.468 128.472 578.386 128.444C578.224 128.392 578.172 128.31 578.17 128.11C578.168 128.03 578.158 127.96 578.143 127.956C578.091 127.941 578.053 128.004 578.04 128.131C578.009 128.374 577.895 128.461 577.869 128.261C577.86 128.205 577.866 128.066 577.876 127.953C577.898 127.711 577.891 127.667 577.827 127.685C577.764 127.704 577.732 127.643 577.63 127.294C577.582 127.128 577.513 126.938 577.478 126.871C577.425 126.771 577.411 126.715 577.402 126.554C577.395 126.411 577.371 126.301 577.321 126.157C577.272 126.026 577.25 125.92 577.252 125.854C577.254 125.797 577.244 125.682 577.229 125.595C577.215 125.507 577.21 125.361 577.22 125.27C577.235 125.137 577.231 125.097 577.196 125.067C577.166 125.038 577.15 124.981 577.128 124.832C577.079 124.462 577.037 123.795 577.035 123.349C577.033 123.058 577.025 122.995 576.965 122.833C576.926 122.726 576.852 122.592 576.79 122.507C576.694 122.38 576.627 122.249 576.461 121.862C576.437 121.807 576.399 121.748 576.374 121.728C576.336 121.697 576.326 121.7 576.27 121.754C576.187 121.837 576.099 121.986 576.08 122.085C576.071 122.134 576.081 122.378 576.1 122.628C576.14 123.143 576.147 123.761 576.114 124.241C576.086 124.633 576.102 124.771 576.247 125.325C576.308 125.564 576.358 125.783 576.358 125.81C576.355 125.835 576.327 125.865 576.298 125.874C576.216 125.897 576.214 125.934 576.284 126.018C576.391 126.149 576.716 126.872 576.832 127.236C576.949 127.602 576.956 127.68 576.863 127.654C576.761 127.624 576.656 127.443 576.526 127.071C576.421 126.773 576.379 126.685 576.259 126.509C576.181 126.397 576.103 126.262 576.088 126.209C576.074 126.16 576.06 125.945 576.055 125.735C576.045 125.013 575.931 124.43 575.771 124.267C575.6 124.089 575.437 124.072 575.413 124.229C575.394 124.329 575.503 124.975 575.55 125.055C575.599 125.14 575.637 125.107 575.658 124.958C575.699 124.659 575.741 124.492 575.778 124.473C575.845 124.438 575.873 124.515 575.848 124.685C575.836 124.78 575.842 124.929 575.863 125.057C575.911 125.333 575.888 125.384 575.707 125.412C575.588 125.433 575.574 125.44 575.562 125.5C575.546 125.572 575.627 125.803 575.841 126.313C575.964 126.596 575.99 126.689 576.016 126.923C576.023 126.993 576.062 127.062 576.179 127.216C576.264 127.328 576.34 127.443 576.35 127.476C576.358 127.505 576.428 127.587 576.503 127.654L576.638 127.776L576.754 128.148C576.894 128.593 576.902 128.696 576.806 128.888C576.721 129.063 576.627 129.151 576.433 129.245C576.184 129.369 575.962 129.35 575.919 129.202C575.893 129.113 575.933 129.083 576.202 128.98C576.314 128.937 576.425 128.88 576.449 128.851C576.498 128.791 576.508 128.568 576.467 128.427C576.447 128.358 576.41 128.315 576.327 128.258C576.244 128.202 576.195 128.146 576.136 128.024C576.035 127.823 576 127.787 575.927 127.808C575.846 127.832 575.783 127.788 575.728 127.673C575.643 127.491 575.535 127.332 575.428 127.239C575.305 127.13 575.286 127.09 575.107 126.596C574.914 126.059 574.84 125.916 574.722 125.833C574.615 125.756 574.586 125.681 574.538 125.379C574.522 125.271 574.492 125.188 574.44 125.098C574.327 124.911 574.176 124.509 574.19 124.44C574.196 124.406 574.225 124.32 574.254 124.247C574.339 124.026 574.277 123.942 574.12 124.063C574.052 124.112 574 124.074 573.962 123.94C573.905 123.747 573.96 123.537 574.092 123.424C574.167 123.362 574.184 123.322 574.198 123.205C574.21 123.116 574.203 123.029 574.179 122.964C574.125 122.816 574.056 122.835 573.959 123.022C573.861 123.209 573.747 123.349 573.698 123.345C573.662 123.342 573.658 123.319 573.666 123.19C573.674 122.997 573.669 122.98 573.577 122.937C573.509 122.903 573.494 122.883 573.446 122.717C573.391 122.527 573.339 122.469 573.268 122.519C573.221 122.557 573.101 122.908 573.107 122.993C573.111 123.032 573.104 123.081 573.091 123.1C573.061 123.144 573.036 123.126 572.94 122.996C572.858 122.886 572.774 122.889 572.741 122.998C572.727 123.039 572.727 123.088 572.74 123.106C572.753 123.123 572.752 123.155 572.737 123.176C572.695 123.242 572.624 123.193 572.591 123.079C572.549 122.933 572.496 122.889 572.413 122.931C572.358 122.961 572.343 122.958 572.331 122.916C572.323 122.888 572.322 122.821 572.327 122.766C572.342 122.644 572.342 122.646 572.286 122.662C572.261 122.669 572.222 122.663 572.199 122.648C572.134 122.605 572.073 122.636 572.029 122.74C571.971 122.87 571.954 122.969 571.968 123.09C571.974 123.148 571.986 123.317 571.992 123.468C572.006 123.708 572.013 123.75 572.066 123.823C572.156 123.947 572.319 124.542 572.301 124.684C572.282 124.856 572.347 125.119 572.505 125.497C572.584 125.686 572.651 125.851 572.655 125.864C572.659 125.879 572.611 125.987 572.549 126.105C572.488 126.225 572.447 126.331 572.459 126.344C572.473 126.355 572.529 126.363 572.584 126.363C572.72 126.361 572.795 126.41 572.799 126.505C572.801 126.588 572.554 127.086 572.487 127.13C572.34 127.229 571.857 126.862 571.721 126.547C571.693 126.48 571.629 126.351 571.58 126.256C571.493 126.095 571.479 126.046 571.462 125.841C571.458 125.773 571.445 125.757 571.381 125.736C571.34 125.723 571.298 125.69 571.29 125.662C571.282 125.635 571.245 125.59 571.207 125.561C571.12 125.492 571.038 125.338 570.976 125.133C570.932 124.985 570.918 124.962 570.816 124.895C570.732 124.836 570.674 124.767 570.581 124.603C570.476 124.422 570.439 124.379 570.323 124.308C570.136 124.196 570.11 124.163 570.053 123.968C570.016 123.842 569.973 123.757 569.889 123.642C569.494 123.118 569.064 122.348 568.717 121.538C568.552 121.157 568.501 121.064 568.366 120.894C568.235 120.725 568.086 120.422 568.017 120.185C567.971 120.026 567.97 119.999 568.009 119.95C568.059 119.89 568.02 119.848 567.967 119.906C567.893 119.99 567.916 120.204 568.082 120.912C568.325 121.967 568.361 122.359 568.278 123.073C568.258 123.233 568.248 123.453 568.253 123.562C568.258 123.67 568.253 123.773 568.242 123.793C568.215 123.844 568.038 123.917 567.911 123.93C567.748 123.948 567.57 123.876 567.241 123.66C566.941 123.463 566.866 123.398 566.801 123.286C566.778 123.244 566.72 123.207 566.642 123.184C566.574 123.164 566.507 123.135 566.493 123.123C566.478 123.111 566.352 123.027 566.214 122.936C565.904 122.73 565.8 122.648 565.624 122.454C565.418 122.232 565.361 122.144 565.233 121.854C565.172 121.708 565.101 121.557 565.081 121.517C565.05 121.456 565.052 121.421 565.085 121.344C565.137 121.229 565.111 121.196 565.052 121.297C565.004 121.38 564.896 121.42 564.858 121.369C564.844 121.349 564.82 121.297 564.807 121.25C564.793 121.203 564.756 121.141 564.724 121.112C564.64 121.042 564.58 120.756 564.615 120.591C564.649 120.425 564.568 120.055 564.479 119.978C564.447 119.95 564.405 119.933 564.385 119.938C564.366 119.944 564.332 119.93 564.309 119.907C564.264 119.861 564.275 119.742 564.329 119.662C564.379 119.586 564.327 119.472 564.219 119.422C564.131 119.384 564.122 119.375 564.135 119.309C564.143 119.272 564.188 119.168 564.236 119.077L564.322 118.911L564.261 118.814C564.226 118.76 564.157 118.677 564.108 118.63C564.005 118.531 563.661 118.354 563.574 118.358C563.5 118.361 563.318 118.516 563.041 118.819C562.861 119.017 562.809 119.059 562.64 119.137C562.533 119.19 562.423 119.252 562.396 119.278C562.369 119.305 562.25 119.39 562.13 119.465C562.012 119.543 561.828 119.669 561.718 119.749C561.557 119.866 561.461 119.913 561.218 120.003C561.052 120.064 560.861 120.142 560.791 120.175C560.645 120.25 559.605 120.6 558.995 120.783L558.568 120.911L558.47 120.821C558.311 120.679 558.299 120.645 558.354 120.543C558.478 120.316 558.75 120.189 559.923 119.813C560.88 119.505 561.035 119.449 561.116 119.369C561.177 119.314 561.373 119.197 561.797 118.971C562.284 118.712 562.816 118.356 563.082 118.115C563.345 117.874 563.497 117.682 563.446 117.654C563.429 117.645 563.227 117.718 562.945 117.835C562.374 118.074 561.232 118.419 560.826 118.481C560.611 118.514 560.559 118.529 560.441 118.598C560.262 118.707 560.2 118.722 559.365 118.887C558.633 119.027 558.47 119.046 558.161 119.017C557.741 118.976 557.684 118.89 557.866 118.555C557.925 118.446 557.949 118.426 558.052 118.396C558.116 118.377 558.309 118.351 558.481 118.338C559.234 118.28 560.103 118.076 562.085 117.486C563.679 117.015 563.55 117.031 563.811 117.24C564.005 117.393 564.241 117.657 564.268 117.748C564.299 117.855 564.377 117.856 564.501 117.751L564.603 117.664L564.491 117.672C564.337 117.682 564.322 117.63 564.389 117.329C564.412 117.215 564.432 117.077 564.434 117.018C564.434 116.808 564.791 116.328 564.987 116.271C565.034 116.257 565.128 116.193 565.198 116.129C565.302 116.032 565.341 116.01 565.438 115.995C565.517 115.983 565.581 115.956 565.637 115.91C565.682 115.873 565.756 115.833 565.8 115.82C565.896 115.792 566.096 115.801 566.164 115.835C566.192 115.848 566.256 115.856 566.305 115.85C566.438 115.838 566.556 115.879 566.683 115.979C566.861 116.121 567.102 116.408 567.165 116.562C567.234 116.724 567.313 116.793 567.384 116.745C567.433 116.712 567.454 116.544 567.414 116.491C567.376 116.441 567.436 116.383 567.546 116.368C567.601 116.359 567.644 116.347 567.645 116.342C567.644 116.337 567.564 116.244 567.466 116.139C567.284 115.942 567.196 115.777 567.26 115.758C567.28 115.753 567.345 115.793 567.404 115.851C567.559 115.999 567.666 116.056 567.747 116.032C567.784 116.022 567.814 116.007 567.813 116.002C567.812 115.997 567.813 115.973 567.814 115.949C567.815 115.925 567.766 115.877 567.685 115.828C567.53 115.733 567.418 115.607 567.434 115.541C567.45 115.477 567.639 115.339 567.759 115.304C567.867 115.272 568.012 115.311 568.03 115.375C568.037 115.398 568.086 115.437 568.14 115.467C568.28 115.544 568.293 115.49 568.17 115.343C568.037 115.188 567.975 115.056 568.003 114.978C568.036 114.89 568.105 114.932 568.223 115.118C568.285 115.215 568.343 115.278 568.377 115.285C568.431 115.296 568.432 115.288 568.382 115.115C568.325 114.921 568.319 114.783 568.359 114.691C568.395 114.613 568.511 114.591 568.606 114.641C568.717 114.702 568.737 114.686 568.702 114.565C568.668 114.448 568.689 114.359 568.828 114.039C568.928 113.806 568.981 113.627 568.995 113.465C569 113.382 569.03 113.255 569.059 113.182C569.089 113.11 569.108 113.029 569.102 113.006C569.061 112.865 569.275 112.228 569.396 112.129C569.471 112.069 569.471 112.066 569.424 111.962C569.376 111.86 569.379 111.851 569.465 111.673C569.514 111.573 569.585 111.351 569.623 111.179C569.661 111.006 569.734 110.737 569.787 110.58C569.84 110.422 569.921 110.103 569.966 109.873C570.012 109.639 570.071 109.409 570.097 109.362C570.123 109.314 570.156 109.191 570.169 109.09C570.183 108.99 570.242 108.744 570.302 108.544C570.429 108.102 570.468 107.943 570.469 107.854C570.469 107.816 570.493 107.718 570.526 107.636C570.555 107.552 570.584 107.441 570.59 107.389C570.596 107.335 570.628 107.163 570.664 107.005C570.701 106.846 570.794 106.386 570.871 105.982C570.948 105.579 571.039 105.143 571.076 105.011C571.439 103.656 571.576 103.073 571.595 102.788C571.604 102.656 571.617 102.634 571.702 102.569C571.828 102.473 571.931 102.264 572.015 101.939C572.129 101.478 572.185 101.436 572.295 101.198ZM581.971 121.446C581.984 121.448 581.999 121.449 582.013 121.45C581.998 121.449 581.984 121.446 581.971 121.444L581.971 121.446Z" fill="white"/>
<path d="M158.159 90.8082C159.056 97.0561 160.85 105.684 162.045 109.552C163.839 115.502 163.241 116.395 159.355 114.907C152.18 112.23 153.077 116.693 161.746 125.916C168.921 133.651 184.167 136.626 184.167 130.379C184.167 128.593 186.558 127.998 189.548 128.891C192.238 129.486 200.011 129.188 206.588 127.998L218.545 125.618L207.185 123.238C200.908 122.048 191.043 121.75 185.363 122.643C178.487 123.833 174.601 123.238 174.003 120.858C165.633 92.5933 162.045 82.7751 159.654 80.99C157.262 79.7999 156.963 83.0726 158.159 90.8082Z" fill="white"/>
</svg>
